<svg width="1884" height="520" xmlns="http://www.w3.org/2000/svg" xmlns:xlink="http://www.w3.org/1999/xlink" xml:space="preserve" overflow="hidden"><defs><clipPath id="clip0"><rect x="260" y="1299" width="1884" height="520"/></clipPath><linearGradient x1="260" y1="1299" x2="780" y2="1819" gradientUnits="userSpaceOnUse" spreadMethod="reflect" id="fill1"><stop offset="0" stop-color="#CF7B00"/><stop offset="0.3" stop-color="#CF7B00"/><stop offset="0.4956" stop-color="#A16000"/><stop offset="0.7" stop-color="#734500"/><stop offset="1" stop-color="#734500"/></linearGradient></defs><g clip-path="url(#clip0)" transform="translate(-260 -1299)"><path d="M503.75 1494 503.75 1542.75 455 1542.75 455 1575.25 503.75 1575.25 503.75 1624 536.25 1624 536.25 1575.25 585 1575.25 585 1542.75 536.25 1542.75 536.25 1494ZM617.5 1461.5 617.5 1656.5 650 1656.5 650 1461.5ZM390 1461.5 390 1656.5 422.5 1656.5 422.5 1461.5ZM520 1299 780 1559 520 1819 260 1559Z" fill="url(#fill1)" fill-rule="evenodd"/><path d="M1116.64 1606.81 1090.73 1623.76 1090.73 1643.4 1120.75 1669.11 1197.95 1648.93 1197.95 1606.81ZM2025.04 1536.83 1986.44 1575.75 1986.44 1616.63 2015.57 1644.31 2081.51 1628.42 2081.51 1536.83ZM1612.74 1536.5 1545.02 1552.74 1545.02 1664.84 1605.06 1664.84 1642.94 1625.93 1642.94 1561.67ZM1796.53 1533.62 1762.04 1578.09 1762.04 1582.37 1852.11 1582.37 1866.4 1569.34 1866.4 1546.66 1851.75 1533.62ZM1782.06 1508.29 1864.26 1508.29 1894.79 1539.16 1894.79 1583.8 1872.12 1605.2 1762.04 1605.2 1762.04 1623.06 1803.14 1665.02 1886.75 1665.02 1882.47 1691.6 1788.13 1691.6 1730.09 1630.38 1730.09 1569.52ZM1087.7 1508.29 1194.73 1508.29 1231.16 1546.66 1231.16 1691.6 1207.59 1691.6 1200.45 1669.11 1108.96 1695.7 1060.03 1655.36 1060.03 1613.41 1104.31 1583.62 1197.95 1583.62 1197.95 1554.33 1179.19 1534.87 1083.41 1534.87ZM2009.67 1508.11 2098.82 1508.11 2098.82 1508.29 2114 1508.29 2114 1709.82 2069.18 1763 1978.76 1763 1974.66 1734.64 2052.02 1734.64 2080.61 1700.54 2080.61 1651.8 2005.38 1673.05 1953.23 1626.81 1953.23 1563.61ZM1623.47 1504.01 1676.87 1552.03 1676.87 1636.1 1620.43 1691.6 1547.16 1691.6 1547.16 1759.43 1512.7 1763 1512.7 1508.29 1536.45 1508.29 1543.23 1529.89ZM1402.84 1504.01 1448.26 1549.17 1448.79 1579.69 1414.28 1584.86 1414.28 1559.34 1391.4 1534.17 1325.98 1549.88 1325.98 1691.6 1291.88 1691.6 1291.88 1508.29 1316.7 1508.29 1324.2 1530.25ZM848 1431 882.995 1431 882.995 1472.41 934.817 1540.24 979.135 1473.48 979.135 1431 1011.63 1431 1011.63 1481.16 953.581 1564.87 1011.63 1640.91 1011.63 1691.6 976.634 1691.6 976.634 1649.83 924.989 1582.36 880.493 1649.47 880.493 1691.6 848 1691.6 848 1641.44 906.047 1557.55 848 1481.69Z" fill-rule="evenodd"/></g></svg>